<?xml version="1.0" encoding="UTF-8"?>
<svg id="Layer_1" xmlns="http://www.w3.org/2000/svg" version="1.1" viewBox="0 0 1920 751.97">
  <!-- Generator: Adobe Illustrator 29.8.1, SVG Export Plug-In . SVG Version: 2.1.1 Build 2)  -->
  <defs>
    <style>
      .st0 {
        fill: #004ce5;
      }
    </style>
  </defs>
  <path class="st0" d="M1447.98,64.31c-28.02-.06-50.78,22.6-50.84,50.62-.06,28.02,22.6,50.78,50.63,50.84,28.02.06,50.78-22.6,50.84-50.62.06-28.02-22.6-50.78-50.63-50.84Z"/>
  <path class="st0" d="M367.4,466.4c-25.48,15.14-33.86,48.07-18.72,73.55,15.14,25.48,48.07,33.86,73.55,18.72,25.48-15.14,33.86-48.07,18.72-73.55-15.14-25.48-48.08-33.86-73.55-18.72Z"/>
  <path class="st0" d="M650.55,157.35c-11.13-2.25-21.52-3.01-32.66-3.04-103.19-.22-185.77,84.23-185.98,185.93-.22,103.18,82,186.5,185.19,186.72,42.31.09,99.5-13.15,140.41-52.41,17.85-17.04,18.66-45.99.88-63.1-17.03-17.86-45.24-17.91-63.1-.88-19.34,18.52-54.25,28.09-78,28.04-46.03-.1-83.81-32.84-94.12-75.18l228.64.49c17.82.04,30.46-12.56,36.43-26.65,2.98-7.42,5.97-14.83,5.98-21.51,1.54-24.5-11.76-51.99-23.6-72.8-26.63-44.6-69.62-75.87-120.07-85.62ZM535.95,288.5c17.87-27.43,47.6-44.44,81.75-44.37,33.4.07,60.83,16.46,75.62,44.7l-157.37-.34Z"/>
  <path class="st0" d="M1448.77,193.93c-25.98-.06-46.81,19.94-46.87,45.18l-.46,241.72c-.05,25.24,20.69,46.07,46.67,46.12,24.49.05,45.32-20.69,45.38-45.93l.46-241.72c.05-25.24-20.69-45.33-45.18-45.38Z"/>
  <path class="st0" d="M1733.33,155.08c-102.44-.22-186.51,83.48-186.73,185.93-.22,103.18,83.49,186.5,185.93,186.72,102.44.22,186.51-82.74,187.47-185.18-.52-103.18-84.22-187.25-186.67-187.47ZM1732.73,436.43c-52.71-.11-94.93-42.52-94.82-95.22.11-52.7,42.52-94.93,95.22-94.82,52.71.11,94.93,42.52,94.82,95.22-.11,52.7-42.52,94.93-95.22,94.82Z"/>
  <path class="st0" d="M1324.92,154.84l-22.14-.05.22-95.84c.05-25.01-20.18-45.32-45.18-45.38-25.01-.05-45.33,20.18-45.38,45.18l-.22,95.84-22.19-.07c-25.01-.05-45.32,20.18-45.38,45.18-.06,25.01,20.18,45.33,45.18,45.38l22.17.07-.54,236.41c-.05,25.01,20.18,45.33,45.19,45.38,25.01.06,45.32-20.18,45.38-45.18l.54-236.41,22.15.05c25.01.05,45.33-20.18,45.38-45.18.06-25.01-20.18-45.33-45.18-45.38Z"/>
  <path class="st0" d="M266.22,574.84c-90.71,84.68-116.62,62.02-130.52,49.81-13.24-11.61-34.56-30.34,8.74-101.73,13.35,3.08,27.23,4.77,41.48,4.8,102.44.22,186.51-82.74,187.47-185.18-.12-23.86-4.74-46.67-12.95-67.68.67-.36,1.35-.67,2-1.06,25.48-15.14,33.86-48.08,18.72-73.55-15.14-25.48-48.08-33.86-73.56-18.72-4.46,2.65-8.36,5.87-11.74,9.47-30.74-22.49-68.45-35.84-109.14-35.93C84.28,154.86.22,238.57,0,341.01c-.11,52.25,21.32,99.37,55.78,133.22-20.94,35.31-32.83,66.32-36.84,95.77-6.91,50.68,10.41,95.87,50.09,130.68,31.2,27.36,63.22,37.72,93.96,37.72,76.22,0,144.46-63.7,172.24-89.64,20.41-19.05,21.52-51.05,2.46-71.46-19.05-20.42-51.05-21.52-71.46-2.46ZM186.53,246.39c52.7.11,94.93,42.52,94.82,95.22-.11,52.7-42.52,94.93-95.22,94.82-52.7-.11-94.93-42.52-94.82-95.22.11-52.7,42.52-94.93,95.22-94.82Z"/>
  <g>
    <g>
      <path class="st0" d="M953.8,243.64"/>
      <path class="st0" d="M939.32,156.37"/>
    </g>
    <g>
      <path class="st0" d="M991.08,523.92c-49.66,0-97.22-12.86-147.46-44.6-20.84-13.17-26.48-41.95-12-61.93,13.62-20.6,41.37-25.62,61.93-12,22.01,14.58,72.9,36.52,102.24,32.26,39.72-5.78,56.67-48.73,7.84-56.23-7.98-1.2-18.53-2.65-29.85-3.37-21.01-2.1-47.77-3.82-73.8-16.44-9.11-4.4-17.44-9.66-24.97-15.65-7.5-5.98-14.13-12.65-19.81-19.88l-.76-1.03c-12.72-16.75-20.5-36.14-20.87-54.75-1.1-45.91,22.63-72.76,42.3-87.48,19.12-13.76,44.02-21.36,66.51-24.38,44.81-8.18,90.72-4.99,142.3,13.34,23.28,8.29,35.11,35.11,25.38,57.81-8.73,23.07-34.7,34.11-57.77,25.34-22.28-8.49-69.02-17.64-98.21-11.45-.14.04-.28.04-.38.1-.43.09-.82.21-1.24.31-1.99.54-3.99,1.19-5.95,1.96l-1.75.69c-16.16,6.81-16.99,27.17-4.61,36.59,2.1,1.62,4.61,2.65,7.19,3.3,7.84,1.96,18.53,2.65,29.85,3.37,21.01,2.1,46.94,5.64,73.8,16.44,65.06,26.17,78.41,76.03,78.78,94.6,1.1,45.91-30.71,123.07-138.69,123.07Z"/>
      <path class="st0" d="M1108.13,324.69"/>
    </g>
  </g>
</svg>