<?xml version="1.0" encoding="UTF-8"?>
<svg id="Layer_1" xmlns="http://www.w3.org/2000/svg" version="1.1" viewBox="0 0 1080 1080">
  <!-- Generator: Adobe Illustrator 29.8.1, SVG Export Plug-In . SVG Version: 2.1.1 Build 2)  -->
  <defs>
    <style>
      .st0 {
        fill: #fff;
      }

      .st1 {
        fill: #004add;
      }
    </style>
  </defs>
  <path class="st1" d="M830.99,0H249.01C111.49,0,0,111.13,0,248.22v583.56c0,137.09,111.49,248.22,249.01,248.22h581.98c137.52,0,249.01-111.13,249.01-248.22V248.22C1080,111.13,968.51,0,830.99,0Z"/>
  <g>
    <path class="st0" d="M753.41,562.8c-32.04,18.98-42.58,60.26-23.54,92.2,19.04,31.94,60.45,42.44,92.49,23.46,32.04-18.98,42.58-60.26,23.54-92.2-19.04-31.94-60.46-42.44-92.49-23.46Z"/>
    <path class="st0" d="M626.18,698.73c-114.07,106.15-146.65,77.74-164.12,62.44-16.65-14.55-43.46-38.03,10.99-127.51,16.79,3.86,34.24,5.98,52.16,6.02,128.82.27,234.53-103.71,235.74-232.12-.15-29.91-5.96-58.5-16.29-84.84.84-.45,1.69-.84,2.52-1.33,32.04-18.98,42.58-60.26,23.54-92.2-19.04-31.94-60.46-42.45-92.5-23.46-5.6,3.32-10.51,7.36-14.76,11.87-38.65-28.19-86.07-44.92-137.24-45.03-128.82-.27-234.53,104.65-234.8,233.06-.14,65.49,26.81,124.56,70.14,166.99-26.33,44.26-41.28,83.13-46.33,120.04-8.68,63.53,13.09,120.18,62.99,163.8,39.23,34.3,79.5,47.28,118.15,47.28,95.84,0,181.66-79.85,216.59-112.36,25.67-23.88,27.06-63.99,3.09-89.57-23.96-25.59-64.19-26.98-89.86-3.08ZM525.96,287.02c66.28.14,119.37,53.3,119.23,119.36-.14,66.06-53.47,118.99-119.74,118.85-66.28-.14-119.37-53.29-119.23-119.36.14-66.06,53.46-118.99,119.74-118.85Z"/>
  </g>
</svg>